<?xml version="1.0" encoding="UTF-8" standalone="no"?>
<!-- Created with Inkscape (http://www.inkscape.org/) -->

<svg
   xmlns:dc="http://purl.org/dc/elements/1.1/"
   xmlns:cc="http://creativecommons.org/ns#"
   xmlns:rdf="http://www.w3.org/1999/02/22-rdf-syntax-ns#"
   xmlns:svg="http://www.w3.org/2000/svg"
   xmlns="http://www.w3.org/2000/svg"
   xmlns:sodipodi="http://sodipodi.sourceforge.net/DTD/sodipodi-0.dtd"
   xmlns:inkscape="http://www.inkscape.org/namespaces/inkscape"
   width="91.957764mm"
   height="81.662743mm"
   viewBox="0 0 91.957764 81.662743"
   version="1.1"
   id="svg5123"
   inkscape:version="0.92.3 (2405546, 2018-03-11)"
   sodipodi:docname="SCTD-1.svg"
   inkscape:export-filename="/home/sylvain/Workspaces/beepbeep/pattheminer/Source/Core/src/doc-files/SCTD-1.png"
   inkscape:export-xdpi="48"
   inkscape:export-ydpi="48">
  <defs
     id="defs5117" />
  <sodipodi:namedview
     id="base"
     pagecolor="#ffffff"
     bordercolor="#666666"
     borderopacity="1.0"
     inkscape:pageopacity="0.0"
     inkscape:pageshadow="2"
     inkscape:zoom="1.4"
     inkscape:cx="51.609724"
     inkscape:cy="21.4913"
     inkscape:document-units="mm"
     inkscape:current-layer="layer1"
     showgrid="false"
     fit-margin-top="1"
     fit-margin-left="1"
     fit-margin-right="1"
     fit-margin-bottom="1"
     inkscape:window-width="1920"
     inkscape:window-height="1053"
     inkscape:window-x="0"
     inkscape:window-y="0"
     inkscape:window-maximized="1" />
  <metadata
     id="metadata5120">
    <rdf:RDF>
      <cc:Work
         rdf:about="">
        <dc:format>image/svg+xml</dc:format>
        <dc:type
           rdf:resource="http://purl.org/dc/dcmitype/StillImage" />
        <dc:title></dc:title>
      </cc:Work>
    </rdf:RDF>
  </metadata>
  <g
     inkscape:label="Layer 1"
     inkscape:groupmode="layer"
     id="layer1"
     transform="translate(-15.25326,-13.507916)">
    <path
       style="fill:none;stroke:#000000;stroke-width:0.52916676;stroke-linecap:butt;stroke-linejoin:miter;stroke-miterlimit:4;stroke-dasharray:none;stroke-opacity:1"
       d="m 61.479985,48.518683 v -12.6244"
       id="path4984"
       inkscape:connector-curvature="0" />
    <g
       id="g5020"
       transform="translate(-303.26872,218.36298)">
      <g
         transform="matrix(0,0.45800735,-0.45800735,0,292.58458,-300.21102)"
         id="g4919"
         style="fill:#ffffff;fill-opacity:1">
        <path
           inkscape:connector-curvature="0"
           id="path4917"
           style="fill:#ffffff;fill-opacity:1;fill-rule:nonzero;stroke:#0b280b;stroke-width:1.63732004;stroke-linecap:butt;stroke-linejoin:miter;stroke-miterlimit:4;stroke-dasharray:none;stroke-opacity:1"
           d="m 316.816,-69.004 h 26.223 V -84.07 h -26.223 z" />
      </g>
      <g
         transform="matrix(0,0.45800735,-0.45800735,0,292.58458,-300.21102)"
         id="g4923"
         style="fill:#ffffff;fill-opacity:1">
        <path
           inkscape:connector-curvature="0"
           id="path4921"
           style="fill:#ffffff;fill-opacity:1;fill-rule:nonzero;stroke:#0b280b;stroke-width:1.63732004;stroke-linecap:butt;stroke-linejoin:miter;stroke-miterlimit:4;stroke-dasharray:none;stroke-opacity:1"
           d="m 314.398,-59.633 h 31.059 v -14.844 h -31.059 z" />
      </g>
    </g>
    <g
       id="g4927"
       transform="matrix(0,0.24660948,-0.45800735,0,-10.684138,-81.848164)">
      <path
         d="m 617.438,-62.992 h -9.381 l 4.687,-8.121 z"
         style="fill:#ff0000;fill-opacity:1;fill-rule:nonzero;stroke:#000000;stroke-width:1.48755705;stroke-linecap:round;stroke-linejoin:round;stroke-miterlimit:4;stroke-dasharray:none;stroke-opacity:1"
         id="path4925"
         inkscape:connector-curvature="0" />
    </g>
    <g
       id="g5038"
       transform="translate(-321.525,213.30262)">
      <g
         id="g5024"
         transform="matrix(0,0.45800735,0.45800735,0,192.19033,-217.34849)">
        <path
           d="m 146.945,453.41 h 26.223 v 50.68 h -26.223 z"
           style="fill:#ffffff;fill-opacity:1;fill-rule:nonzero;stroke:#0b280b;stroke-width:1.63732004;stroke-linecap:butt;stroke-linejoin:miter;stroke-miterlimit:4;stroke-dasharray:none;stroke-opacity:1"
           id="path5022"
           inkscape:connector-curvature="0" />
      </g>
      <g
         id="g5028"
         transform="matrix(0,0.45800735,0.45800735,0,192.19033,-217.34849)">
        <path
           d="m 144.527,498.621 h 31.059 v 14.844 h -31.059 z"
           style="fill:#ffffff;fill-opacity:1;fill-rule:nonzero;stroke:#0b280b;stroke-width:1.63732004;stroke-linecap:butt;stroke-linejoin:miter;stroke-miterlimit:4;stroke-dasharray:none;stroke-opacity:1"
           id="path5026"
           inkscape:connector-curvature="0" />
      </g>
    </g>
    <g
       transform="matrix(0,0.24660948,-0.45800735,0,-129.33467,-4.0459525)"
       id="g5032">
      <path
         inkscape:connector-curvature="0"
         id="path5030"
         style="fill:#00ff00;fill-opacity:1;fill-rule:nonzero;stroke:#000000;stroke-width:1.48755705;stroke-linecap:round;stroke-linejoin:round;stroke-miterlimit:4;stroke-dasharray:none;stroke-opacity:1"
         d="m 301.95,-501.98 h -9.38 l 4.694,-8.122 z" />
    </g>
    <rect
       style="opacity:1;fill:#93ac93;fill-opacity:1;stroke:#000000;stroke-width:0.70555556;stroke-linecap:square;stroke-linejoin:round;stroke-miterlimit:4;stroke-dasharray:none;stroke-dashoffset:0;stroke-opacity:1"
       id="rect1361"
       width="68.497696"
       height="40.863426"
       x="27.041702"
       y="48.82946" />
    <g
       style="fill:#ffffff;fill-opacity:1"
       id="g2170"
       transform="matrix(0,0.45800735,-0.45800735,0,-153.20595,-47.381073)">
      <path
         d="m 146.945,-430.719 h 26.223 v -50.68 h -26.223 z"
         style="fill:#ffffff;fill-opacity:1;fill-rule:nonzero;stroke:#0b280b;stroke-width:1.63732004;stroke-linecap:butt;stroke-linejoin:miter;stroke-miterlimit:4;stroke-dasharray:none;stroke-opacity:1"
         id="path2168"
         inkscape:connector-curvature="0" />
    </g>
    <g
       style="fill:#ffffff;fill-opacity:1"
       id="g2174"
       transform="matrix(0,0.45800735,-0.45800735,0,-153.20595,-47.381073)">
      <path
         d="m 144.527,-421.348 h 31.059 v -14.844 h -31.059 z"
         style="fill:#ffffff;fill-opacity:1;fill-rule:nonzero;stroke:#0b280b;stroke-width:1.63732004;stroke-linecap:butt;stroke-linejoin:miter;stroke-miterlimit:4;stroke-dasharray:none;stroke-opacity:1"
         id="path2172"
         inkscape:connector-curvature="0" />
    </g>
    <g
       id="g2178"
       transform="matrix(0,0.45800735,0.45800735,0,-153.20595,-47.381073)">
      <path
         d="m 146.945,453.41 h 26.223 v 50.68 h -26.223 z"
         style="fill:#ffffff;fill-opacity:1;fill-rule:nonzero;stroke:#0b280b;stroke-width:1.63732004;stroke-linecap:butt;stroke-linejoin:miter;stroke-miterlimit:4;stroke-dasharray:none;stroke-opacity:1"
         id="path2176"
         inkscape:connector-curvature="0" />
    </g>
    <g
       id="g2182"
       transform="matrix(0,0.45800735,0.45800735,0,-153.20595,-47.381073)">
      <path
         d="m 144.527,498.621 h 31.059 v 14.844 h -31.059 z"
         style="fill:#ffffff;fill-opacity:1;fill-rule:nonzero;stroke:#0b280b;stroke-width:1.63732004;stroke-linecap:butt;stroke-linejoin:miter;stroke-miterlimit:4;stroke-dasharray:none;stroke-opacity:1"
         id="path2180"
         inkscape:connector-curvature="0" />
    </g>
    <g
       id="g2186"
       transform="matrix(0,0.24660948,-0.45800735,0,-153.20595,-47.381073)">
      <path
         d="m 301.95,-501.98 h -9.38 l 4.694,-8.122 z"
         style="fill:#00ff00;fill-opacity:1;fill-rule:nonzero;stroke:#000000;stroke-width:1.48755705;stroke-linecap:round;stroke-linejoin:round;stroke-miterlimit:4;stroke-dasharray:none;stroke-opacity:1"
         id="path2184"
         inkscape:connector-curvature="0" />
    </g>
    <g
       id="g2190"
       transform="matrix(0,0.24660948,-0.45800735,0,-153.20595,-47.381073)">
      <path
         d="m 301.95,-424.707 h -9.38 l 4.694,-8.125 z"
         style="fill:#ff0000;fill-opacity:1;fill-rule:nonzero;stroke:#000000;stroke-width:1.48755705;stroke-linecap:round;stroke-linejoin:round;stroke-miterlimit:4;stroke-dasharray:none;stroke-opacity:1"
         id="path2188"
         inkscape:connector-curvature="0" />
    </g>
    <g
       id="g2194"
       transform="matrix(0.45800735,0,0,0.45800735,-153.20595,-47.381073)">
      <path
         d="m 443.355,135.992 h 48.125 v 48.129 h -48.125 z"
         style="fill:#93ac93;fill-opacity:1;fill-rule:nonzero;stroke:#0b280b;stroke-width:1.73074198;stroke-linecap:butt;stroke-linejoin:miter;stroke-miterlimit:4;stroke-dasharray:none;stroke-opacity:1"
         id="path2192"
         inkscape:connector-curvature="0" />
    </g>
    <text
       y="32.674984"
       x="49.016438"
       transform="scale(1.1322023,0.88323438)"
       style="font-variant:normal;font-weight:bold;font-size:12.58662796px;font-family:'DejaVu Sans';-inkscape-font-specification:DejaVuSans-Bold;writing-mode:lr-tb;fill:#000000;fill-opacity:1;fill-rule:nonzero;stroke:none;stroke-width:0.40452784"
       id="text2198">
      <tspan
         style="stroke-width:0.40452784"
         x="49.016438"
         y="32.674984"
         id="tspan2196">β</tspan>
    </text>
    <g
       id="g2204"
       transform="matrix(0.45800735,0,0,0.45800735,-126.26255,-65.856284)">
      <path
         d="m 416.934,249.723 c 0,4.105 -3.329,7.433 -7.438,7.433 -4.105,0 -7.434,-3.328 -7.434,-7.433 0,-4.106 3.329,-7.438 7.434,-7.438 4.109,0 7.438,3.332 7.438,7.438 z"
         style="fill:#c8b7b7;fill-opacity:1;fill-rule:nonzero;stroke:#241c1c;stroke-width:1.31204104;stroke-linecap:butt;stroke-linejoin:miter;stroke-miterlimit:22.92558479;stroke-dasharray:none;stroke-opacity:1"
         id="path2202"
         inkscape:connector-curvature="0" />
    </g>
    <g
       id="g4883"
       transform="matrix(0.45800735,0,0,0.45800735,-125.0209,-64.118363)"
       style="fill:#e6e6e6">
      <path
         d="m 367.684,273.734 h 8.035 c 1.289,0 2.328,1.036 2.328,2.325 v 13.109 c 0,1.289 -1.039,2.324 -2.328,2.324 h -8.035 c -1.289,0 -2.329,-1.035 -2.329,-2.324 v -13.109 c 0,-1.289 1.04,-2.325 2.329,-2.325 z"
         style="fill:#e6e6e6;fill-opacity:1;fill-rule:nonzero;stroke:#000000;stroke-width:1.31203997;stroke-linecap:round;stroke-linejoin:round;stroke-miterlimit:4;stroke-dasharray:none;stroke-opacity:1"
         id="path4881"
         inkscape:connector-curvature="0" />
    </g>
    <g
       id="g4887"
       transform="matrix(0.45800735,0,0,0.45800735,-124.71397,-64.118363)"
       style="fill:#e6e6e6">
      <path
         d="m 384.477,273.734 h 8.035 c 1.289,0 2.328,1.036 2.328,2.325 v 13.109 c 0,1.289 -1.039,2.324 -2.328,2.324 h -8.035 c -1.289,0 -2.329,-1.035 -2.329,-2.324 v -13.109 c 0,-1.289 1.04,-2.325 2.329,-2.325 z"
         style="fill:#e6e6e6;fill-opacity:1;fill-rule:nonzero;stroke:#000000;stroke-width:1.31203997;stroke-linecap:round;stroke-linejoin:round;stroke-miterlimit:4;stroke-dasharray:none;stroke-opacity:1"
         id="path4885"
         inkscape:connector-curvature="0" />
    </g>
    <g
       transform="matrix(0.45800735,0,0,0.45800735,-116.71573,-64.118363)"
       id="g4891"
       style="fill:#e6e6e6">
      <path
         inkscape:connector-curvature="0"
         id="path4889"
         style="fill:#e6e6e6;fill-opacity:1;fill-rule:nonzero;stroke:#000000;stroke-width:1.31203997;stroke-linecap:round;stroke-linejoin:round;stroke-miterlimit:4;stroke-dasharray:none;stroke-opacity:1"
         d="m 384.477,273.734 h 8.035 c 1.289,0 2.328,1.036 2.328,2.325 v 13.109 c 0,1.289 -1.039,2.324 -2.328,2.324 h -8.035 c -1.289,0 -2.329,-1.035 -2.329,-2.324 v -13.109 c 0,-1.289 1.04,-2.325 2.329,-2.325 z" />
    </g>
    <g
       transform="matrix(0.45800735,0,0,0.45800735,-101.02617,-64.118363)"
       id="g4895"
       style="fill:#f9f9f9">
      <path
         inkscape:connector-curvature="0"
         id="path4893"
         style="fill:#f9f9f9;fill-opacity:1;fill-rule:nonzero;stroke:#000000;stroke-width:1.31203997;stroke-linecap:round;stroke-linejoin:round;stroke-miterlimit:4;stroke-dasharray:none;stroke-opacity:1"
         d="m 367.684,273.734 h 8.035 c 1.289,0 2.328,1.036 2.328,2.325 v 13.109 c 0,1.289 -1.039,2.324 -2.328,2.324 h -8.035 c -1.289,0 -2.329,-1.035 -2.329,-2.324 v -13.109 c 0,-1.289 1.04,-2.325 2.329,-2.325 z" />
    </g>
    <g
       transform="matrix(0.45800735,0,0,0.45800735,-100.71925,-64.118363)"
       id="g4899"
       style="fill:#f9f9f9">
      <path
         inkscape:connector-curvature="0"
         id="path4897"
         style="fill:#f9f9f9;fill-opacity:1;fill-rule:nonzero;stroke:#000000;stroke-width:1.31203997;stroke-linecap:round;stroke-linejoin:round;stroke-miterlimit:4;stroke-dasharray:none;stroke-opacity:1"
         d="m 384.477,273.734 h 8.035 c 1.289,0 2.328,1.036 2.328,2.325 v 13.109 c 0,1.289 -1.039,2.324 -2.328,2.324 h -8.035 c -1.289,0 -2.329,-1.035 -2.329,-2.324 v -13.109 c 0,-1.289 1.04,-2.325 2.329,-2.325 z" />
    </g>
    <g
       id="g4903"
       transform="matrix(0.45800735,0,0,0.45800735,-92.72098,-64.118363)"
       style="fill:#f9f9f9">
      <path
         d="m 384.477,273.734 h 8.035 c 1.289,0 2.328,1.036 2.328,2.325 v 13.109 c 0,1.289 -1.039,2.324 -2.328,2.324 h -8.035 c -1.289,0 -2.329,-1.035 -2.329,-2.324 v -13.109 c 0,-1.289 1.04,-2.325 2.329,-2.325 z"
         style="fill:#f9f9f9;fill-opacity:1;fill-rule:nonzero;stroke:#000000;stroke-width:1.31203997;stroke-linecap:round;stroke-linejoin:round;stroke-miterlimit:4;stroke-dasharray:none;stroke-opacity:1"
         id="path4901"
         inkscape:connector-curvature="0" />
    </g>
    <text
       y="40.217464"
       x="-115.46902"
       transform="matrix(0,-0.66683027,1.499632,0,0,0)"
       style="font-variant:normal;font-weight:normal;font-size:16.26506615px;font-family:'DejaVu Sans';-inkscape-font-specification:DejaVuSans;writing-mode:lr-tb;fill:#000000;fill-opacity:1;fill-rule:nonzero;stroke:none;stroke-width:0.38748276"
       id="text4907">
      <tspan
         style="stroke-width:0.38748276"
         x="-115.46902"
         y="40.217464"
         id="tspan4905">{</tspan>
    </text>
    <text
       id="text4911"
       style="font-variant:normal;font-weight:normal;font-size:16.26506615px;font-family:'DejaVu Sans';-inkscape-font-specification:DejaVuSans;writing-mode:lr-tb;fill:#000000;fill-opacity:1;fill-rule:nonzero;stroke:none;stroke-width:0.38748276"
       transform="matrix(0,-0.66683027,1.499632,0,0,0)"
       x="-115.46902"
       y="56.292385">
      <tspan
         id="tspan4909"
         y="56.292385"
         x="-115.46902"
         style="stroke-width:0.38748276">{</tspan>
    </text>
    <g
       transform="matrix(0.45800735,0,0,0.45800735,-133.01914,-64.118363)"
       id="g4915"
       style="fill:#b3b3b3">
      <path
         inkscape:connector-curvature="0"
         id="path4913"
         style="fill:#b3b3b3;fill-opacity:1;fill-rule:nonzero;stroke:#000000;stroke-width:1.31203997;stroke-linecap:round;stroke-linejoin:round;stroke-miterlimit:4;stroke-dasharray:none;stroke-opacity:1"
         d="m 367.684,273.734 h 8.035 c 1.289,0 2.328,1.036 2.328,2.325 v 13.109 c 0,1.289 -1.039,2.324 -2.328,2.324 h -8.035 c -1.289,0 -2.329,-1.035 -2.329,-2.324 v -13.109 c 0,-1.289 1.04,-2.325 2.329,-2.325 z" />
    </g>
    <text
       xml:space="preserve"
       style="font-style:normal;font-weight:normal;font-size:12.71675682px;line-height:1;font-family:sans-serif;letter-spacing:0px;word-spacing:0px;fill:#d7e3f4;fill-opacity:1;stroke:#000000;stroke-width:0.26458332"
       x="55.060169"
       y="85.166573"
       id="text4931"><tspan
         sodipodi:role="line"
         id="tspan4929"
         x="55.060169"
         y="85.166573"
         style="font-weight:bold;fill:#d7e3f4;stroke:#000000;stroke-width:0.26458332">≈?</tspan></text>
    <g
       id="g4965"
       transform="translate(-297.33031,196.85256)">
      <g
         transform="matrix(0.45800735,0,0,0.45800735,239.46405,-180.47427)"
         id="g4935">
        <path
           inkscape:connector-curvature="0"
           id="path4933"
           style="fill:#eeffaa;fill-opacity:1;fill-rule:nonzero;stroke:#22280b;stroke-width:1.06337297;stroke-linecap:butt;stroke-linejoin:miter;stroke-miterlimit:4;stroke-dasharray:none;stroke-opacity:1"
           d="m 202.816,154.086 h 7.164 c 1.489,0 2.688,1.199 2.688,2.684 v 6.574 c 0,1.488 -1.199,2.683 -2.688,2.683 h -7.164 c -1.488,0 -2.683,-1.195 -2.683,-2.683 v -6.574 c 0,-1.485 1.195,-2.684 2.683,-2.684 z" />
      </g>
      <text
         id="text4939"
         style="font-variant:normal;font-weight:normal;font-size:4.30414915px;font-family:'DejaVu Sans';-inkscape-font-specification:DejaVuSans;writing-mode:lr-tb;fill:#000000;fill-opacity:1;fill-rule:nonzero;stroke:none;stroke-width:0.43515518"
         transform="scale(1.052515,0.95010523)"
         x="315.22314"
         y="-111.228">
        <tspan
           id="tspan4937"
           y="-111.228"
           x="315.22314"
           style="stroke-width:0.43515518">m</tspan>
      </text>
    </g>
    <g
       id="g4982"
       transform="translate(-295.86039,197.47619)">
      <g
         transform="matrix(0.45800735,0,0,0.45800735,196.43366,-181.0979)"
         id="g4943">
        <path
           inkscape:connector-curvature="0"
           id="path4941"
           style="fill:#eeffaa;fill-opacity:1;fill-rule:nonzero;stroke:#22280b;stroke-width:1.06337297;stroke-linecap:butt;stroke-linejoin:miter;stroke-miterlimit:4;stroke-dasharray:none;stroke-opacity:1"
           d="m 318.105,154.086 h 7.165 c 1.488,0 2.687,1.199 2.687,2.684 v 6.574 c 0,1.488 -1.199,2.683 -2.687,2.683 h -7.165 c -1.488,0 -2.683,-1.195 -2.683,-2.683 v -6.574 c 0,-1.485 1.195,-2.684 2.683,-2.684 z" />
      </g>
      <text
         id="text4947"
         style="font-variant:normal;font-weight:normal;font-size:5.10227013px;font-family:'DejaVu Sans';-inkscape-font-specification:DejaVuSans;writing-mode:lr-tb;fill:#000000;fill-opacity:1;fill-rule:nonzero;stroke:none;stroke-width:0.36708608"
         transform="scale(1.2476837,0.80148518)"
         x="273.91299"
         y="-132.63121">
        <tspan
           id="tspan4945"
           y="-132.63121"
           x="273.91299"
           style="stroke-width:0.36708608">n</tspan>
      </text>
    </g>
    <g
       id="g4976"
       transform="translate(-296.74235,196.86672)">
      <rect
         ry="4.1325397"
         y="-111.31392"
         x="368.48239"
         height="8.2650795"
         width="13.715592"
         id="rect4949"
         style="opacity:1;fill:#ffffff;fill-opacity:1;stroke:#000000;stroke-width:0.7055555;stroke-linecap:round;stroke-linejoin:round;stroke-miterlimit:4;stroke-dasharray:none;stroke-dashoffset:0;stroke-opacity:1" />
      <rect
         style="opacity:1;fill:none;fill-opacity:1;stroke:#000000;stroke-width:0.7055555;stroke-linecap:round;stroke-linejoin:round;stroke-miterlimit:4;stroke-dasharray:none;stroke-dashoffset:0;stroke-opacity:1"
         id="rect4953"
         width="13.715592"
         height="8.2650795"
         x="368.48242"
         y="-111.31392"
         ry="4.1325397" />
      <text
         id="text4957"
         style="font-variant:normal;font-weight:bold;font-size:6.65316439px;font-family:'DejaVu Sans';-inkscape-font-specification:DejaVuSans-Bold;writing-mode:lr-tb;fill:#ffffff;fill-opacity:1;fill-rule:nonzero;stroke:#000000;stroke-width:0.4256734"
         transform="scale(0.92940293,1.0759596)"
         x="401.56226"
         y="-97.108383">
        <tspan
           id="tspan4955"
           y="-97.108383"
           x="401.56226"
           style="fill:#ffffff;stroke:#000000;stroke-width:0.4256734">δ</tspan>
      </text>
    </g>
  </g>
</svg>
